<?xml version="1.0" encoding="UTF-8" standalone="no"?>
<!-- Created with Inkscape (http://www.inkscape.org/) -->

<svg
   xmlns:dc="http://purl.org/dc/elements/1.1/"
   xmlns:cc="http://creativecommons.org/ns#"
   xmlns:rdf="http://www.w3.org/1999/02/22-rdf-syntax-ns#"
   xmlns:svg="http://www.w3.org/2000/svg"
   xmlns="http://www.w3.org/2000/svg"
   xmlns:sodipodi="http://sodipodi.sourceforge.net/DTD/sodipodi-0.dtd"
   xmlns:inkscape="http://www.inkscape.org/namespaces/inkscape"
   width="200.51979mm"
   height="13.060039mm"
   viewBox="0 0 200.51979 13.060039"
   version="1.1"
   id="svg2104"
   inkscape:version="0.92.4 (5da689c313, 2019-01-14)"
   sodipodi:docname="tabell_1.svg">
  <defs
     id="defs2098" />
  <sodipodi:namedview
     id="base"
     pagecolor="#ffffff"
     bordercolor="#666666"
     borderopacity="1.0"
     inkscape:pageopacity="0.0"
     inkscape:pageshadow="2"
     inkscape:zoom="2.8"
     inkscape:cx="676.25345"
     inkscape:cy="-35.549461"
     inkscape:document-units="mm"
     inkscape:current-layer="layer1"
     showgrid="false"
     fit-margin-top="2"
     fit-margin-left="2"
     fit-margin-bottom="2"
     fit-margin-right="2"
     inkscape:window-width="1920"
     inkscape:window-height="1017"
     inkscape:window-x="1912"
     inkscape:window-y="-8"
     inkscape:window-maximized="1" />
  <metadata
     id="metadata2101">
    <rdf:RDF>
      <cc:Work
         rdf:about="">
        <dc:format>image/svg+xml</dc:format>
        <dc:type
           rdf:resource="http://purl.org/dc/dcmitype/StillImage" />
        <dc:title></dc:title>
      </cc:Work>
    </rdf:RDF>
  </metadata>
  <g
     inkscape:label="Layer 1"
     inkscape:groupmode="layer"
     id="layer1"
     transform="translate(8.033707,-37.981884)">
    <g
       id="g1621"
       transform="matrix(0.35277777,0,0,-0.35277777,-26.003751,222.53168)">
      <path
         d="M 56.608,517.407 H 613.672"
         style="fill:none;stroke:#000000;stroke-width:0.09999;stroke-linecap:butt;stroke-linejoin:round;stroke-miterlimit:10;stroke-dasharray:none;stroke-opacity:1"
         id="path1623"
         inkscape:connector-curvature="0" />
    </g>
    <g
       id="g1625"
       transform="matrix(0.35277777,0,0,-0.35277777,-26.003751,222.53168)">
      <path
         d="M 56.665,517.464 V 491.782"
         style="fill:none;stroke:#000000;stroke-width:0.09999;stroke-linecap:butt;stroke-linejoin:round;stroke-miterlimit:10;stroke-dasharray:none;stroke-opacity:1"
         id="path1627"
         inkscape:connector-curvature="0" />
    </g>
    <g
       id="g1629"
       transform="matrix(0.35277777,0,0,-0.35277777,-26.003751,222.53168)">
      <path
         d="M 126.85,517.464 V 491.782"
         style="fill:none;stroke:#000000;stroke-width:0.09999;stroke-linecap:butt;stroke-linejoin:round;stroke-miterlimit:10;stroke-dasharray:none;stroke-opacity:1"
         id="path1631"
         inkscape:connector-curvature="0" />
    </g>
    <g
       id="g1633"
       transform="matrix(0.35277777,0,0,-0.35277777,-26.003751,222.53168)">
      <path
         d="M 190.828,517.464 V 491.782"
         style="fill:none;stroke:#000000;stroke-width:0.09999;stroke-linecap:butt;stroke-linejoin:round;stroke-miterlimit:10;stroke-dasharray:none;stroke-opacity:1"
         id="path1635"
         inkscape:connector-curvature="0" />
    </g>
    <g
       id="g1637"
       transform="matrix(0.35277777,0,0,-0.35277777,-26.003751,222.53168)">
      <path
         d="M 292.677,517.464 V 491.782"
         style="fill:none;stroke:#000000;stroke-width:0.09999;stroke-linecap:butt;stroke-linejoin:round;stroke-miterlimit:10;stroke-dasharray:none;stroke-opacity:1"
         id="path1639"
         inkscape:connector-curvature="0" />
    </g>
    <g
       id="g1641"
       transform="matrix(0.35277777,0,0,-0.35277777,-26.003751,222.53168)">
      <path
         d="M 374.457,517.464 V 491.782"
         style="fill:none;stroke:#000000;stroke-width:0.09999;stroke-linecap:butt;stroke-linejoin:round;stroke-miterlimit:10;stroke-dasharray:none;stroke-opacity:1"
         id="path1643"
         inkscape:connector-curvature="0" />
    </g>
    <g
       id="g1645"
       transform="matrix(0.35277777,0,0,-0.35277777,-26.003751,222.53168)">
      <path
         d="M 468.595,517.464 V 491.782"
         style="fill:none;stroke:#000000;stroke-width:0.09999;stroke-linecap:butt;stroke-linejoin:round;stroke-miterlimit:10;stroke-dasharray:none;stroke-opacity:1"
         id="path1647"
         inkscape:connector-curvature="0" />
    </g>
    <g
       id="g1649"
       transform="matrix(0.35277777,0,0,-0.35277777,-26.003751,222.53168)">
      <path
         d="M 549.638,517.464 V 491.782"
         style="fill:none;stroke:#000000;stroke-width:0.09999;stroke-linecap:butt;stroke-linejoin:round;stroke-miterlimit:10;stroke-dasharray:none;stroke-opacity:1"
         id="path1651"
         inkscape:connector-curvature="0" />
    </g>
    <g
       id="g1653"
       transform="matrix(0.35277777,0,0,-0.35277777,-26.003751,222.53168)">
      <path
         d="M 613.616,517.464 V 491.782"
         style="fill:none;stroke:#000000;stroke-width:0.09999;stroke-linecap:butt;stroke-linejoin:round;stroke-miterlimit:10;stroke-dasharray:none;stroke-opacity:1"
         id="path1655"
         inkscape:connector-curvature="0" />
    </g>
    <g
       id="g1657"
       transform="matrix(0.35277777,0,0,-0.35277777,-26.003751,222.53168)">
      <path
         d="M 613.616,517.464 V 491.782"
         style="fill:none;stroke:#000000;stroke-width:0.09999;stroke-linecap:butt;stroke-linejoin:round;stroke-miterlimit:10;stroke-dasharray:none;stroke-opacity:1"
         id="path1659"
         inkscape:connector-curvature="0" />
    </g>
    <g
       id="g1661"
       transform="matrix(0.35277777,0,0,-0.35277777,-26.003751,222.53168)">
      <path
         d="M 56.608,504.623 H 613.672"
         style="fill:none;stroke:#000000;stroke-width:0.09999;stroke-linecap:butt;stroke-linejoin:round;stroke-miterlimit:10;stroke-dasharray:none;stroke-opacity:1"
         id="path1663"
         inkscape:connector-curvature="0" />
    </g>
    <g
       id="g1665"
       transform="matrix(0.35277777,0,0,-0.35277777,-26.003751,222.53168)">
      <path
         d="M 56.608,491.838 H 613.672"
         style="fill:none;stroke:#000000;stroke-width:0.09999;stroke-linecap:butt;stroke-linejoin:round;stroke-miterlimit:10;stroke-dasharray:none;stroke-opacity:1"
         id="path1667"
         inkscape:connector-curvature="0" />
    </g>
    <g
       id="g1705"
       transform="matrix(0.35277777,0,0,-0.35277777,-26.003751,222.53168)">
      <text
         transform="matrix(1,0,0,-1,79.795,507.514)"
         style="font-variant:normal;font-weight:bold;font-size:7.99399996px;font-family:'DejaVu Sans Mono';-inkscape-font-specification:DejaVuSansMono-Bold;writing-mode:lr-tb;fill:#000000;fill-opacity:1;fill-rule:nonzero;stroke:none"
         id="text1709">
        <tspan
           x="0 4.7964001 9.5928001 14.3892 19.1856"
           y="0"
           sodipodi:role="line"
           id="tspan1707">Datum</tspan>
      </text>
    </g>
    <g
       id="g1711"
       transform="matrix(0.35277777,0,0,-0.35277777,-26.003751,222.53168)">
      <text
         transform="matrix(1,0,0,-1,151.71,507.514)"
         style="font-variant:normal;font-weight:bold;font-size:7.99399996px;font-family:'DejaVu Sans Mono';-inkscape-font-specification:DejaVuSansMono-Bold;writing-mode:lr-tb;fill:#000000;fill-opacity:1;fill-rule:nonzero;stroke:none"
         id="text1715">
        <tspan
           x="0 4.7964001 9.5928001"
           y="0"
           sodipodi:role="line"
           id="tspan1713">Tid</tspan>
      </text>
    </g>
    <g
       id="g1717"
       transform="matrix(0.35277777,0,0,-0.35277777,-26.003751,222.53168)">
      <text
         transform="matrix(1,0,0,-1,229.691,507.514)"
         style="font-variant:normal;font-weight:bold;font-size:7.99399996px;font-family:'DejaVu Sans Mono';-inkscape-font-specification:DejaVuSansMono-Bold;writing-mode:lr-tb;fill:#000000;fill-opacity:1;fill-rule:nonzero;stroke:none"
         id="text1721">
        <tspan
           x="0 4.7964001 9.5928001 14.3892 19.1856"
           y="0"
           sodipodi:role="line"
           id="tspan1719">Klass</tspan>
      </text>
    </g>
    <g
       id="g1723"
       transform="matrix(0.35277777,0,0,-0.35277777,-26.003751,222.53168)">
      <text
         transform="matrix(1,0,0,-1,319.209,507.514)"
         style="font-variant:normal;font-weight:bold;font-size:7.99399996px;font-family:'DejaVu Sans Mono';-inkscape-font-specification:DejaVuSansMono-Bold;writing-mode:lr-tb;fill:#000000;fill-opacity:1;fill-rule:nonzero;stroke:none"
         id="text1727">
        <tspan
           x="0 4.7964001 9.5928001 14.3892 19.1856 23.982"
           y="0"
           sodipodi:role="line"
           id="tspan1725">Lärare</tspan>
      </text>
    </g>
    <g
       id="g1729"
       transform="matrix(0.35277777,0,0,-0.35277777,-26.003751,222.53168)">
      <text
         transform="matrix(1,0,0,-1,411.902,507.514)"
         style="font-variant:normal;font-weight:bold;font-size:7.99399996px;font-family:'DejaVu Sans Mono';-inkscape-font-specification:DejaVuSansMono-Bold;writing-mode:lr-tb;fill:#000000;fill-opacity:1;fill-rule:nonzero;stroke:none"
         id="text1733">
        <tspan
           x="0 4.7964001 9.5928001 14.3892"
           y="0"
           sodipodi:role="line"
           id="tspan1731">Mejl</tspan>
      </text>
    </g>
    <g
       id="g1735"
       transform="matrix(0.35277777,0,0,-0.35277777,-26.003751,222.53168)">
      <text
         transform="matrix(1,0,0,-1,499.493,507.514)"
         style="font-variant:normal;font-weight:bold;font-size:7.99399996px;font-family:'DejaVu Sans Mono';-inkscape-font-specification:DejaVuSansMono-Bold;writing-mode:lr-tb;fill:#000000;fill-opacity:1;fill-rule:nonzero;stroke:none"
         id="text1739">
        <tspan
           x="0 4.7964001 9.5928001 14.3892"
           y="0"
           sodipodi:role="line"
           id="tspan1737">Tema</tspan>
      </text>
    </g>
    <g
       id="g1741"
       transform="matrix(0.35277777,0,0,-0.35277777,-26.003751,222.53168)">
      <text
         transform="matrix(1,0,0,-1,569.594,507.514)"
         style="font-variant:normal;font-weight:bold;font-size:7.99399996px;font-family:'DejaVu Sans Mono';-inkscape-font-specification:DejaVuSansMono-Bold;writing-mode:lr-tb;fill:#000000;fill-opacity:1;fill-rule:nonzero;stroke:none"
         id="text1745">
        <tspan
           x="0 4.7964001 9.5928001 14.3892 19.1856"
           y="0"
           sodipodi:role="line"
           id="tspan1743">Plats</tspan>
      </text>
    </g>
    <g
       id="g1747"
       transform="matrix(0.35277777,0,0,-0.35277777,-26.003751,222.53168)">
      <text
         transform="matrix(1,0,0,-1,57.713,494.701)"
         style="font-variant:normal;font-weight:normal;font-size:7.99399996px;font-family:'DejaVu Sans Mono';-inkscape-font-specification:DejaVuSansMono;writing-mode:lr-tb;fill:#000000;fill-opacity:1;fill-rule:nonzero;stroke:none"
         id="text1751">
        <tspan
           x="0 4.7964001 9.5928001 14.3892 19.1856 23.982 28.7784 33.574799 38.371201 43.167599"
           y="0"
           sodipodi:role="line"
           id="tspan1749">2020-09-27</tspan>
      </text>
    </g>
    <g
       id="g1753"
       transform="matrix(0.35277777,0,0,-0.35277777,-26.003751,222.53168)">
      <text
         transform="matrix(1,0,0,-1,127.899,494.701)"
         style="font-variant:normal;font-weight:normal;font-size:7.99399996px;font-family:'DejaVu Sans Mono';-inkscape-font-specification:DejaVuSansMono;writing-mode:lr-tb;fill:#000000;fill-opacity:1;fill-rule:nonzero;stroke:none"
         id="text1757">
        <tspan
           x="0 4.7964001 9.5928001 14.3892 19.1856"
           y="0"
           sodipodi:role="line"
           id="tspan1755">09:00</tspan>
      </text>
    </g>
    <g
       id="g1759"
       transform="matrix(0.35277777,0,0,-0.35277777,-26.003751,222.53168)">
      <text
         transform="matrix(1,0,0,-1,191.792,494.701)"
         style="font-variant:normal;font-weight:normal;font-size:7.99399996px;font-family:'DejaVu Sans Mono';-inkscape-font-specification:DejaVuSansMono;writing-mode:lr-tb;fill:#000000;fill-opacity:1;fill-rule:nonzero;stroke:none"
         id="text1763">
        <tspan
           x="0 4.7964001 9.5928001 14.3892 19.1856 23.982 28.7784 33.574799 38.371201 43.167599 47.964001 52.760399 57.556801 62.353199 67.149597"
           y="0"
           sodipodi:role="line"
           id="tspan1761">5B, Kattskolan</tspan>
      </text>
    </g>
    <g
       id="g1765"
       transform="matrix(0.35277777,0,0,-0.35277777,-26.003751,222.53168)">
      <text
         transform="matrix(1,0,0,-1,293.698,494.701)"
         style="font-variant:normal;font-weight:normal;font-size:7.99399996px;font-family:'DejaVu Sans Mono';-inkscape-font-specification:DejaVuSansMono;writing-mode:lr-tb;fill:#000000;fill-opacity:1;fill-rule:nonzero;stroke:none"
         id="text1769">
        <tspan
           x="0 4.7964001 9.5928001 14.3892 19.1856 23.982 28.7784 33.574799 38.371201 43.167599 47.964001 52.760399 57.556801 62.353199"
           y="0"
           sodipodi:role="line"
           id="tspan1767">Lisa Johansson</tspan>
      </text>
    </g>
    <g
       id="g1771"
       transform="matrix(0.35277777,0,0,-0.35277777,-26.003751,222.53168)">
      <text
         transform="matrix(1,0,0,-1,469.587,494.701)"
         style="font-variant:normal;font-weight:normal;font-size:7.99399996px;font-family:'DejaVu Sans Mono';-inkscape-font-specification:DejaVuSansMono;writing-mode:lr-tb;fill:#000000;fill-opacity:1;fill-rule:nonzero;stroke:none"
         id="text1775">
        <tspan
           x="0 4.7964001 9.5928001 14.3892 19.1856 23.982 28.7784 33.574799 38.371201 43.167599 47.964001 52.760399 57.556801 62.353199"
           y="0"
           sodipodi:role="line"
           id="tspan1773">Fiskarna leker</tspan>
      </text>
    </g>
    <g
       id="g1777"
       transform="matrix(0.35277777,0,0,-0.35277777,-26.003751,222.53168)">
      <text
         transform="matrix(1,0,0,-1,550.687,494.701)"
         style="font-variant:normal;font-weight:normal;font-size:7.99399996px;font-family:'DejaVu Sans Mono';-inkscape-font-specification:DejaVuSansMono;writing-mode:lr-tb;fill:#000000;fill-opacity:1;fill-rule:nonzero;stroke:none"
         id="text1781">
        <tspan
           x="0 4.7964001 9.5928001 14.3892 19.1856 23.982"
           y="0"
           sodipodi:role="line"
           id="tspan1779">Hundån</tspan>
      </text>
    </g>
    <g
       id="g1825"
       transform="matrix(0.35277777,0,0,-0.35277777,-26.003751,222.53168)">
      <text
         transform="matrix(1,0,0,-1,375.506,494.701)"
         style="font-variant:normal;font-weight:normal;font-size:7.99399996px;font-family:'DejaVu Sans Mono';-inkscape-font-specification:DejaVuSansMono;writing-mode:lr-tb;fill:#000000;fill-opacity:1;fill-rule:nonzero;stroke:none"
         id="text1829">
        <tspan
           x="0 4.7964001 9.5928001 14.3892 19.1856 23.982 28.7784 33.574799 38.371201 43.167599 47.964001 52.760399 57.556801 62.353199 67.149597 71.945999"
           y="0"
           sodipodi:role="line"
           id="tspan1827">lisa@example.com</tspan>
      </text>
    </g>
  </g>
</svg>
